<?xml version="1.0" encoding="UTF-8" standalone="no"?>
<svg
   version="1.0"
   width="1024.000000pt"
   height="1024.000000pt"
   viewBox="0 0 1024.000000 1024.000000"
   preserveAspectRatio="xMidYMid meet"
   id="svg2"
   sodipodi:docname="rWhite.svg"
   inkscape:version="1.3.2 (091e20e, 2023-11-25, custom)"
   xmlns:inkscape="http://www.inkscape.org/namespaces/inkscape"
   xmlns:sodipodi="http://sodipodi.sourceforge.net/DTD/sodipodi-0.dtd"
   xmlns="http://www.w3.org/2000/svg"
   xmlns:svg="http://www.w3.org/2000/svg">
  <defs
     id="defs2" />
  <sodipodi:namedview
     id="namedview2"
     pagecolor="#ffffff"
     bordercolor="#000000"
     borderopacity="0.25"
     inkscape:showpageshadow="2"
     inkscape:pageopacity="0.0"
     inkscape:pagecheckerboard="0"
     inkscape:deskcolor="#d1d1d1"
     inkscape:document-units="pt"
     inkscape:zoom="0.49507168"
     inkscape:cx="372.67331"
     inkscape:cy="738.27693"
     inkscape:window-width="1920"
     inkscape:window-height="1017"
     inkscape:window-x="1272"
     inkscape:window-y="73"
     inkscape:window-maximized="1"
     inkscape:current-layer="svg2" />
  <metadata
     id="metadata1">
Created by potrace 1.12, written by Peter Selinger 2001-2015
</metadata>
  <g
     transform="matrix(0.1,0,0,-0.1,-1.3986014e-6,1025.4322)"
     fill="#000000"
     stroke="none"
     id="g2"
     inkscape:transform-center-x="221.98601"
     inkscape:transform-center-y="-71.608391"
     style="opacity:1;fill:#ffffff;fill-opacity:1">
    <path
       d="m 834.60724,9944.4948 c 0,-8.576 0,-400.1777 -2.73981,-871.8154 -2.73949,-471.6376 -2.73949,-874.6736 0,-891.824 2.73981,-28.584 150.68217,-37.1592 646.56317,-37.1592 h 643.8237 V 5508.2417 c 0,-2629.7375 -2.7397,-2638.3127 -54.7935,-2566.8525 -323.2815,428.7615 -567.1126,966.1429 -687.6583,1514.9576 -71.2317,320.142 -98.6283,989.0099 -54.7936,1329.1608 35.6158,271.549 183.5582,774.6291 293.1453,980.4346 l 63.0124,120.0533 -134.2439,168.6463 C 1226.3807,7457.6775 941.45453,7580.5893 746.93769,7403.3677 579.81749,7251.8721 368.86241,6723.0661 253.79622,6162.8178 201.74222,5914.136 193.52331,5776.9323 193.52331,5256.7016 190.78361,4559.2496 234.61849,4244.8244 415.4369,3687.4343 834.60724,2386.8576 1812.671,1263.5025 3040.0453,668.95314 3377.0254,506.02379 3738.6625,380.25362 4146.8739,291.643 c 317.8022,-71.46034 397.2529,-77.1771 975.3243,-77.1771 679.4392,-2.8585 895.8735,25.72566 1345.1801,168.6461 l 232.8725,74.31885 -90.4092,111.4779 c -49.3144,60.0267 -238.3518,282.98263 -419.1703,494.50495 l -328.761,385.8854 -191.7774,-17.1506 c -599.9887,-60.0264 -1254.7709,8.5753 -1643.8047,168.6462 l -164.3804,68.602 -8.2192,1123.3553 -5.4793,1120.4968 443.8273,-5.7167 443.8274,-8.5753 558.8935,-643.1424 C 5952.3196,2501.194 6935.8627,1383.5556 7286.5411,997.67032 7423.5248,849.033 7607.0831,646.08586 7694.7527,548.89985 l 161.6408,-180.07987 h 764.3692 761.6295 v 783.20452 783.2044 l -106.847,20.0088 c -57.5333,8.5752 -219.1745,14.2921 -356.1577,11.4336 l -246.5711,-8.5751 -158.9011,182.9382 c -87.6695,102.9027 -301.3642,345.8676 -473.9637,545.9563 -1405.4531,1603.5682 -1279.4279,1449.2141 -1213.6759,1472.0813 178.0788,65.7436 567.1127,285.8412 698.6172,394.4608 197.2566,165.7877 498.6208,531.6642 589.0301,717.4608 38.3554,80.0355 93.1488,177.2216 120.5455,217.2392 27.3968,42.8763 95.8887,217.2393 150.6821,385.8855 82.1903,257.2569 101.3681,365.8765 115.0663,623.1334 l 13.6984,311.5669 68.492,-140.0624 c 216.4342,-440.1951 309.5831,-888.9656 309.5831,-1483.5149 0,-603.1244 -76.7109,-1000.4436 -295.8848,-1514.9574 L 8475.56,3384.443 8741.3084,3118.6108 c 304.1039,-300.1332 405.4718,-351.5845 564.3728,-282.9827 167.1204,74.3188 347.9384,420.1863 523.2781,1006.1603 150.6818,500.2219 169.8595,666.0097 169.8595,1386.3292 0,597.4077 -8.2183,703.1689 -63.0125,966.1426 -219.1733,1023.3109 -728.7528,1923.7101 -1484.9034,2626.8792 -649.303,603.1244 -1594.4907,1040.461 -2399.9551,1109.0629 -235.6119,20.009 -5216.34056,34.3015 -5216.34056,14.2925 z M 6048.2082,8072.2358 c 326.0213,-148.6373 599.9886,-448.7705 690.398,-766.0541 54.7934,-188.655 52.0537,-568.8235 -2.7396,-766.0539 -90.4094,-320.1419 -326.0213,-597.4078 -610.9475,-717.4609 -147.9424,-62.8851 -183.5581,-65.7435 -1213.676,-74.3186 l -1062.9938,-8.5753 v 1203.3908 1203.3906 l 1035.5972,-8.575 c 967.105,-8.5755 1041.0762,-11.4337 1164.3617,-65.7436 z"
       id="path2"
       style="stroke-width:2.79842;opacity:1;fill:#ffffff;fill-opacity:1" />
  </g>
</svg>
