<?xml version="1.0" encoding="UTF-8" standalone="no"?>
<!-- Created with Inkscape (http://www.inkscape.org/) -->

<svg
   width="210mm"
   height="210mm"
   viewBox="0 0 210 210"
   version="1.1"
   id="svg1"
   xml:space="preserve"
   inkscape:version="1.3.2 (091e20e, 2023-11-25, custom)"
   sodipodi:docname="java.svg"
   xmlns:inkscape="http://www.inkscape.org/namespaces/inkscape"
   xmlns:sodipodi="http://sodipodi.sourceforge.net/DTD/sodipodi-0.dtd"
   xmlns="http://www.w3.org/2000/svg"
   xmlns:svg="http://www.w3.org/2000/svg"><sodipodi:namedview
     id="namedview1"
     pagecolor="#ffffff"
     bordercolor="#000000"
     borderopacity="0.25"
     inkscape:showpageshadow="2"
     inkscape:pageopacity="0.0"
     inkscape:pagecheckerboard="0"
     inkscape:deskcolor="#d1d1d1"
     inkscape:document-units="mm"
     inkscape:zoom="0.63695988"
     inkscape:cx="295.15203"
     inkscape:cy="391.70442"
     inkscape:window-width="1280"
     inkscape:window-height="961"
     inkscape:window-x="-8"
     inkscape:window-y="-8"
     inkscape:window-maximized="1"
     inkscape:current-layer="layer1" /><defs
     id="defs1" /><g
     inkscape:label="Capa 1"
     inkscape:groupmode="layer"
     id="layer1"><rect
       style="fill:#000000;stroke-width:2.81619"
       id="rect3"
       width="210"
       height="210"
       x="-8.8817842e-16"
       y="-8.8817842e-16" /><path
       d="M 117.36621,4.5692308 C 127.6156,28.751447 80.621622,43.569068 76.253405,63.725608 72.256464,82.226361 104.09002,103.92461 104.11875,103.92461 99.265183,96.273257 95.724867,89.820807 90.8713,77.886598 82.648687,57.730058 140.97716,39.543393 117.36621,4.5692308 Z m 31.06257,33.5752732 c 0,0 -41.0838,2.599435 -43.16804,29.463962 -0.94199,11.962664 10.84912,18.243847 11.19166,26.951547 0.28453,7.109077 -7.08035,13.018997 -7.08035,13.018997 0,0 13.21871,-2.39778 17.35849,-13.247169 4.5682,-12.048299 -8.90771,-20.270911 -7.53727,-29.920876 1.31215,-9.221777 29.23551,-26.266461 29.23551,-26.266461 z m 10.04996,61.897246 c -4.31131,-0.193363 -9.16488,1.39778 -13.47591,4.56821 8.50798,-1.88397 15.75988,3.4544 15.75988,9.59278 0,13.76126 -19.64273,26.72336 -19.64273,26.72336 0,0 30.37777,-3.39749 30.37777,-26.038 0,-9.33616 -5.85302,-14.5038 -13.01901,-14.84635 z m -80.626449,0.221 c -10.59222,0.37015 -31.747925,2.11324 -31.747925,10.27813 0,11.36321 49.277967,12.24828 84.509024,5.25329 0,0 9.59305,-6.68063 12.10548,-9.13616 -23.09742,4.79668 -75.829788,5.53893 -75.829788,1.37017 0,-3.82568 16.901858,-7.76571 16.901858,-7.76571 0,0 -2.397773,-0.1105 -5.938649,0 z m -3.197492,21.01316 c -5.795833,0 -14.389443,4.51103 -14.389443,8.9077 0,8.85052 43.624944,15.64552 75.829784,2.74032 l -11.19167,-6.85219 c -21.84107,7.13754 -62.182879,4.76794 -50.248671,-4.79638 z m 5.481463,19.87091 c -7.908252,0 -13.018727,4.99639 -13.018727,8.67952 0,11.33448 47.250895,12.44773 66.008275,0.91437 l -11.87675,-7.76572 c -13.98971,6.024 -49.192322,6.90909 -41.112798,-1.82873 z M 53.641621,151.42495 C 40.736703,151.17634 32.4,157.02107 32.4,161.93155 c 0,26.12364 132.24556,24.86757 132.24556,-1.82597 0,-4.4254 -5.22483,-6.53809 -7.08063,-7.53754 10.79221,25.52421 -108.03462,23.5256 -108.03462,8.45107 0,-3.42595 8.793617,-6.85217 16.901867,-5.25329 l -6.852178,-3.88286 c -2.027617,-0.31491 -4.082585,-0.42817 -5.938378,-0.4558 z M 178.5781,169.01218 c -20.09936,19.44273 -70.97621,26.409 -122.195602,14.38943 51.219392,21.41262 121.938702,9.50714 122.195602,-14.38943 z"
       id="path1"
       style="fill:#ffffff;stroke-width:7.30889" /></g></svg>
