<?xml version="1.0" encoding="UTF-8" standalone="no"?>
<!-- Created with Inkscape (http://www.inkscape.org/) -->

<svg
   width="210mm"
   height="210mm"
   viewBox="0 0 210 210"
   version="1.1"
   id="svg1"
   xml:space="preserve"
   inkscape:version="1.3.2 (091e20e, 2023-11-25, custom)"
   sodipodi:docname="mysql.svg"
   xmlns:inkscape="http://www.inkscape.org/namespaces/inkscape"
   xmlns:sodipodi="http://sodipodi.sourceforge.net/DTD/sodipodi-0.dtd"
   xmlns="http://www.w3.org/2000/svg"
   xmlns:svg="http://www.w3.org/2000/svg"><sodipodi:namedview
     id="namedview1"
     pagecolor="#ffffff"
     bordercolor="#000000"
     borderopacity="0.25"
     inkscape:showpageshadow="2"
     inkscape:pageopacity="0.0"
     inkscape:pagecheckerboard="0"
     inkscape:deskcolor="#d1d1d1"
     inkscape:document-units="mm"
     inkscape:zoom="0.63695988"
     inkscape:cx="295.15203"
     inkscape:cy="391.70442"
     inkscape:window-width="1280"
     inkscape:window-height="961"
     inkscape:window-x="-8"
     inkscape:window-y="-8"
     inkscape:window-maximized="1"
     inkscape:current-layer="layer1" /><defs
     id="defs1" /><g
     inkscape:label="Capa 1"
     inkscape:groupmode="layer"
     id="layer1"><rect
       style="display:inline;fill:#000000;stroke-width:2.81619"
       id="rect3"
       width="210"
       height="210"
       x="-8.8817842e-16"
       y="-8.8817842e-16" /><path
       d="m 141.31777,46.02 c -0.86172,0 -1.44848,0.113383 -2.05509,0.255111 v 0.08503 h 0.11338 c 0.40535,0.779512 1.09416,1.349272 1.60439,2.046575 0.40534,0.802191 0.75116,1.604383 1.15368,2.4009 l 0.11338,-0.113383 c 0.70581,-0.496054 1.05164,-1.289734 1.05164,-2.497277 -0.30047,-0.351489 -0.34583,-0.705806 -0.60094,-1.048792 -0.30047,-0.501729 -0.94392,-0.751175 -1.34927,-1.148015 z m -79.760908,98.95308 h -6.952407 a 381.39789,381.39789 0 0 0 -2.023904,-33.07431 h -0.05666 L 41.949166,144.97308 H 36.661802 L 26.162185,111.89877 h -0.08503 a 546.67979,546.67979 0 0 0 -1.462654,33.07431 h -6.337579 c 0.413854,-14.7447 1.439975,-28.57439 3.074966,-41.47434 h 8.624814 l 10.012348,30.47952 h 0.05666 l 10.102208,-30.47952 h 8.212382 c 1.814135,15.11235 2.879941,28.94941 3.209889,41.47434 z M 91.68376,114.37365 c -2.834872,15.33714 -6.569735,26.49692 -11.189839,33.44933 -3.61495,5.36985 -7.574882,8.04741 -11.872126,8.04741 -1.148006,0 -2.551132,-0.34583 -4.245078,-1.03463 v -3.7051 c 0.824863,0.14174 1.799966,0.19843 2.894966,0.19843 2.009726,0 3.622613,-0.56125 4.852536,-1.66391 1.476823,-1.34927 2.21382,-2.86493 2.21382,-4.53733 0,-1.16219 -0.578254,-3.52482 -1.726269,-7.07996 l -7.604924,-23.66942 h 6.824847 l 5.452338,17.69948 c 1.230215,4.02002 1.748941,6.82513 1.536352,8.42242 2.999847,-7.97965 5.084976,-16.70227 6.262467,-26.1219 z m 92.43579,30.59943 h -19.72452 v -41.47434 h 6.6372 v 36.37434 h 13.08732 z m -24.89963,1.01195 -7.61967,-3.74989 c 0.67463,-0.56975 1.32658,-1.18485 1.91335,-1.8765 3.2473,-3.79495 4.85991,-9.43493 4.85991,-16.89728 0,-13.72453 -5.38488,-20.59445 -16.16228,-20.59445 -5.28,0 -9.4049,1.74044 -12.37471,5.22727 -3.22491,3.80997 -4.84488,9.41992 -4.84488,16.8372 0,7.29001 1.4258,12.64483 4.3049,16.04974 2.62483,3.07496 6.57739,4.61245 11.87213,4.61245 1.98138,0 3.79495,-0.25511 5.43731,-0.73416 l 9.93751,5.78994 2.70137,-4.66489 z m -24.6893,-9.31504 c -1.68659,-2.69854 -2.52846,-7.04963 -2.52846,-13.01956 0,-10.44746 3.17984,-15.67473 9.52479,-15.67473 3.32243,0 5.77492,1.25288 7.32743,3.74988 1.68091,2.71554 2.51995,7.01986 2.51995,12.92234 0,10.52965 -3.17984,15.80966 -9.5248,15.80966 -3.33745,0 -5.77492,-1.2529 -7.33479,-3.74989 z m -12.4348,-3.18722 c 0,3.52482 -1.28974,6.41979 -3.87007,8.66961 -2.57947,2.25066 -6.02237,3.37515 -10.37971,3.37515 -4.07246,0 -7.97994,-1.28975 -11.797287,-3.86242 l 1.777286,-3.56989 c 3.285011,1.64974 6.247441,2.46043 8.925001,2.46043 2.48878,0 4.44748,-0.54708 5.87243,-1.64973 a 5.6548944,5.6548944 0 0 0 2.25067,-4.61245 c 0,-2.4746 -1.72627,-4.57475 -4.85991,-6.3373 -2.91,-1.59871 -8.72233,-4.92737 -8.72233,-4.92737 -3.164824,-2.30169 -4.739721,-4.77005 -4.739721,-8.82749 0,-3.37487 1.176351,-6.07482 3.524811,-8.13726 2.36122,-2.08627 5.3999,-3.11239 9.14978,-3.11239 3.84003,0 7.34982,1.02046 10.4999,3.07497 l -1.59871,3.56988 a 20.444618,20.444618 0 0 0 -7.97966,-1.72627 c -2.12311,0 -3.76519,0.51023 -4.90498,1.54486 a 5.137404,5.137404 0 0 0 -1.8595,3.92988 c 0,2.46043 1.75462,4.57503 4.99484,6.375 2.94742,1.61289 8.90232,5.02488 8.90232,5.02488 3.2476,2.28752 4.85991,4.7247 4.85991,8.75975 z m 70.36366,-43.889414 c -4.01236,-0.113383 -7.12503,0.300471 -9.72747,1.4088 -0.75116,0.300463 -1.95019,0.300463 -2.05507,1.252886 0.41101,0.39684 0.47337,1.0488 0.82486,1.604383 0.60093,1.006278 1.63556,2.347038 2.59365,3.05257 1.0488,0.824863 2.10043,1.621389 3.20224,2.324366 1.9502,1.199029 4.1626,1.913349 6.0751,3.120039 1.08848,0.70581 2.19681,1.59588 3.29975,2.34704 0.54708,0.37416 0.9014,1.0488 1.60438,1.28974 v -0.14173 c -0.34582,-0.4507 -0.4507,-1.10266 -0.78801,-1.60438 -0.50173,-0.50173 -1.00345,-0.95242 -1.49951,-1.44847 a 24.172049,24.172049 0 0 0 -5.21253,-5.062308 c -1.60438,-1.094152 -5.11502,-2.624829 -5.77492,-4.462501 l -0.085,-0.113383 c 1.09416,-0.08503 2.4009,-0.496054 3.44999,-0.79368 1.70359,-0.450703 3.26233,-0.351489 5.02488,-0.793689 0.79369,-0.19842 1.59871,-0.450703 2.4009,-0.705814 v -0.450703 c -0.89856,-0.901398 -1.57603,-2.123109 -2.50578,-2.962432 a 66.501258,66.501258 0 0 0 -8.27984,-6.172322 c -1.57604,-1.006277 -3.56989,-1.649734 -5.22756,-2.50578 -0.60094,-0.300472 -1.60438,-0.450703 -1.9502,-0.952423 -0.9014,-1.094152 -1.4258,-2.551133 -2.06358,-3.854761 a 132.67253,132.67253 0 0 1 -4.10251,-8.722331 c -0.9014,-1.964366 -1.44848,-3.92251 -2.55113,-5.722476 -5.17486,-8.527305 -10.77716,-13.694763 -19.3946,-18.749696 -1.85099,-1.0488 -4.07246,-1.499494 -6.41979,-2.055077 -1.25288,-0.05666 -2.50578,-0.141729 -3.74988,-0.19842 -0.82486,-0.351489 -1.61855,-1.303912 -2.32436,-1.763118 -2.85019,-1.799966 -10.23005,-5.699801 -12.32991,-0.538577 -1.34927,3.254966 2.00405,6.464856 3.1651,8.114873 0.86171,1.148015 1.9502,2.460429 2.55113,3.749881 0.35149,0.870223 0.45071,1.763118 0.80219,2.670189 0.79369,2.205318 1.55336,4.66489 2.60216,6.727339 0.54707,1.0488 1.14801,2.151455 1.85382,3.097647 0.40535,0.547071 1.09415,0.802191 1.2529,1.703589 -0.70582,1.020454 -0.75118,2.50578 -1.15368,3.74988 -1.79997,5.677407 -1.09416,12.697272 1.45414,16.874619 0.80219,1.244383 2.71554,4.004992 5.27263,2.947406 2.25066,-0.901397 1.75461,-3.749881 2.40089,-6.262467 0.14174,-0.600934 0.0567,-0.997775 0.36,-1.403126 v 0.113391 c 0.70582,1.408792 1.40879,2.75239 2.05508,4.162313 1.54485,2.460429 4.2448,5.009855 6.50227,6.712313 1.19903,0.901406 2.15145,2.460429 3.65237,3.015155 v -0.141729 h -0.11338 c -0.32314,-0.436526 -0.74833,-0.646286 -1.15368,-0.997774 a 25.837018,25.837018 0 0 1 -2.62483,-2.999847 65.698774,65.698774 0 0 1 -5.60257,-9.135045 c -0.82487,-1.576029 -1.51368,-3.269701 -2.17414,-4.82221 -0.30047,-0.600934 -0.30047,-1.499494 -0.80219,-1.799966 -0.75116,1.094152 -1.85382,2.046575 -2.4009,3.397261 -0.95242,2.159958 -1.0488,4.815121 -1.40879,7.574882 -0.19842,0.05666 -0.11338,0 -0.19842,0.113383 -1.60438,-0.391175 -2.15145,-2.055078 -2.75239,-3.449701 -1.4995,-3.562518 -1.74895,-9.284994 -0.4507,-13.387212 0.35149,-1.051637 1.85382,-4.364992 1.25289,-5.370138 -0.31464,-0.952423 -1.30392,-1.499495 -1.85383,-2.273341 a 18.584653,18.584653 0 0 1 -1.79996,-3.202526 c -1.19903,-2.806244 -1.79997,-5.909839 -3.10501,-8.714951 -0.60094,-1.298246 -1.64974,-2.656012 -2.50578,-3.847398 -0.95243,-1.349263 -2.00123,-2.301686 -2.76089,-3.899829 -0.25512,-0.547081 -0.60094,-1.454144 -0.19843,-2.055078 0.11339,-0.405352 0.31464,-0.561249 0.70581,-0.67464 0.66046,-0.538569 2.51146,0.170083 3.16511,0.46488 1.85099,0.751166 3.41228,1.454143 4.96479,2.50578 0.70582,0.496055 1.46265,1.448478 2.36122,1.695087 h 1.0488 c 1.60438,0.351488 3.41257,0.113382 4.91263,0.547071 2.66168,0.856046 5.0623,2.100438 7.21489,3.449701 a 44.646667,44.646667 0 0 1 15.63703,17.144756 c 0.60093,1.156508 0.86172,2.213811 1.40879,3.41256 1.05164,2.474598 2.34705,4.972442 3.41257,7.364839 1.0488,2.361215 2.06358,4.76977 3.56988,6.727339 0.75117,1.0488 3.76491,1.59588 5.11503,2.145789 0.99777,0.450703 2.54829,0.861712 3.4497,1.408792 1.72626,1.0488 3.40519,2.250669 5.02516,3.404915 0.82487,0.569752 3.32243,1.822638 3.47237,2.834872 z"
       id="path1"
       style="fill:#ffffff;stroke-width:7.49985" /></g></svg>
