<?xml version="1.0" encoding="UTF-8" standalone="no"?>
<!-- Created with Inkscape (http://www.inkscape.org/) -->

<svg
   width="210mm"
   height="297mm"
   viewBox="0 0 210 297"
   version="1.1"
   id="svg1"
   xml:space="preserve"
   inkscape:version="1.3.2 (091e20e, 2023-11-25, custom)"
   sodipodi:docname="netlify.svg"
   xmlns:inkscape="http://www.inkscape.org/namespaces/inkscape"
   xmlns:sodipodi="http://sodipodi.sourceforge.net/DTD/sodipodi-0.dtd"
   xmlns="http://www.w3.org/2000/svg"
   xmlns:svg="http://www.w3.org/2000/svg"><sodipodi:namedview
     id="namedview1"
     pagecolor="#ffffff"
     bordercolor="#000000"
     borderopacity="0.25"
     inkscape:showpageshadow="2"
     inkscape:pageopacity="0.0"
     inkscape:pagecheckerboard="0"
     inkscape:deskcolor="#d1d1d1"
     inkscape:document-units="mm"
     inkscape:zoom="0.63695988"
     inkscape:cx="243.34343"
     inkscape:cy="523.58086"
     inkscape:window-width="1280"
     inkscape:window-height="961"
     inkscape:window-x="-8"
     inkscape:window-y="-8"
     inkscape:window-maximized="1"
     inkscape:current-layer="layer1" /><defs
     id="defs1" /><g
     inkscape:label="Capa 1"
     inkscape:groupmode="layer"
     id="layer1"
     style="display:inline;opacity:1"><rect
       style="display:inline;opacity:1;fill:#000000;stroke-width:0.27552"
       id="rect4"
       width="210"
       height="210"
       x="-8.8817842e-16"
       y="-8.8817842e-16" /><path
       d="m 145.45095,77.464655 -0.0638,-0.02806 c -0.0376,-0.01403 -0.0765,-0.02849 -0.1063,-0.04252 -0.11055,-0.127559 -0.15732,-0.297638 -0.13181,-0.437953 l 3.63243,-22.185939 17.03598,17.022344 -17.71739,7.529817 c -0.051,0.01998 -0.10205,0.02934 -0.15733,0.02806 h -0.0723 c -0.0233,-0.01403 -0.0468,-0.03274 -0.0935,-0.08504 -0.65905,-0.73134 -1.44779,-1.339372 -2.32624,-1.790081 z m 24.71043,-1.352127 18.21555,18.195889 c 3.78337,3.784255 5.6771,5.670855 6.36795,7.858493 0.10205,0.34016 0.18709,0.6463 0.25512,0.98221 L 151.46769,84.732976 c -0.0234,-0.0098 -0.0468,-0.01913 -0.0723,-0.02806 -0.17433,-0.08504 -0.37417,-0.170079 -0.37417,-0.340158 0,-0.170078 0.20835,-0.255118 0.37842,-0.340157 l 0.0553,-0.02381 z m 24.09474,32.875392 c -0.9401,1.76457 -2.77268,3.59717 -5.87447,6.69899 l -20.5372,20.51023 -26.56202,-5.52543 -0.14031,-0.0281 c -0.23386,-0.0378 -0.48387,-0.085 -0.48387,-0.29764 -0.20409,-2.21102 -1.31895,-4.24346 -3.0784,-5.60069 -0.1063,-0.12756 -0.0808,-0.29764 -0.0468,-0.4337 0,-0.0234 0,-0.0425 0.009,-0.085 l 4.99586,-30.635461 0.0188,-0.08504 c 0.0282,-0.255119 0.0723,-0.505985 0.28063,-0.505985 2.16254,-0.255118 4.12651,-1.394647 5.45154,-3.120947 0.0423,-0.04252 0.0723,-0.08504 0.12755,-0.127559 0.14882,-0.08504 0.3274,0 0.48387,0.08504 l 45.3512,19.162362 z m -31.13472,31.92679 -33.77118,33.73471 5.78047,-35.49035 0.009,-0.0425 c 0.005,-0.0425 0.0141,-0.085 0.0282,-0.12756 0.0468,-0.12756 0.17007,-0.17008 0.28488,-0.2126 l 0.0553,-0.0234 c 1.2658,-0.54 2.38491,-1.37338 3.26634,-2.42787 0.1148,-0.12756 0.25086,-0.25512 0.42519,-0.29764 0.0468,-0.007 0.0893,-0.007 0.13607,0 l 23.7795,4.88211 z m -40.91928,40.87463 -3.80675,3.80126 -42.084781,-60.75558 c -0.01522,-0.0221 -0.03087,-0.0425 -0.04677,-0.085 -0.06803,-0.085 -0.136062,-0.17007 -0.123306,-0.29763 0.0047,-0.085 0.05102,-0.12756 0.102047,-0.2126 l 0.04677,-0.0425 c 0.127558,-0.17008 0.233856,-0.38268 0.352911,-0.57827 l 0.09354,-0.17008 0.01412,-0.014 c 0.06803,-0.12756 0.127558,-0.2126 0.238108,-0.29764 0.09779,-0.0425 0.233857,-0.0281 0.344407,-0.005 l 46.624524,9.60478 c 0.13181,0.0204 0.25512,0.085 0.35716,0.17008 0.0595,0.0425 0.0765,0.12756 0.0893,0.2126 0.65905,2.49166 2.44657,4.53218 4.83118,5.51608 0.13181,0.085 0.0765,0.2126 0.0141,0.38268 -0.0305,0.085 -0.0553,0.12756 -0.0723,0.2126 -0.58762,3.5674 -5.6254,34.26026 -6.97888,42.54566 z m -7.95167,7.93843 c -2.80543,2.77654 -4.4599,4.24347 -6.33033,4.83534 -1.84406,0.58252 -3.82334,0.58252 -5.6677,0 -2.19017,-0.69307 -4.083985,-2.58095 -7.867104,-6.36563 l -42.263315,-42.2174 11.039303,-17.10186 c 0.05102,-0.085 0.102047,-0.17008 0.187086,-0.2126 0.119054,-0.085 0.284879,-0.0425 0.427744,0 2.533729,0.76536 5.254331,0.62504 7.697919,-0.38267 0.127558,-0.0425 0.255116,-0.085 0.352911,0.009 0.05102,0.0425 0.09354,0.085 0.13181,0.17008 l 42.291756,61.30493 z m -66.202995,-47.81768 -9.695223,-9.68471 19.146088,-8.15869 c 0.05102,-0.0217 0.102046,-0.0327 0.15307,-0.0332 0.161573,0 0.255116,0.17008 0.340155,0.29763 0.191337,0.29764 0.39543,0.58252 0.611003,0.86316 l 0.05953,0.085 c 0.05528,0.085 0.01879,0.17008 -0.03759,0.25512 L 48.050176,141.93178 Z M 34.061517,127.93939 21.795573,115.68691 c -2.086426,-2.08347 -3.59969,-3.59717 -4.652554,-4.89615 l 37.295862,7.72668 c 0.04677,0.009 0.09354,0.0166 0.140314,0.0238 0.229605,0.0374 0.483871,0.085 0.483871,0.29764 0,0.25512 -0.276376,0.34016 -0.512359,0.4337 l -0.106298,0.0425 z M 15,104.49061 c 0.04252,-0.79086 0.182833,-1.56897 0.420942,-2.32582 0.695617,-2.185518 2.584752,-4.073394 6.37259,-7.858499 L 37.490151,78.626719 c 7.227187,10.477284 14.473933,20.941387 21.74028,31.391881 0.127558,0.17008 0.267872,0.34016 0.123307,0.49748 -0.686263,0.75685 -1.3721,1.58174 -1.856396,2.4789 -0.05102,0.12756 -0.13181,0.2126 -0.233857,0.29764 -0.05953,0.0374 -0.127558,0.0234 -0.195589,0.009 h -0.0093 L 15.002083,104.49019 Z M 41.693616,74.432149 62.799422,53.349172 c 1.983103,0.867402 9.201786,3.916066 15.659032,6.638178 4.887559,2.066459 9.342738,3.941578 10.743241,4.553437 0.140314,0.04252 0.267872,0.127559 0.327399,0.255118 0.03759,0.08504 0.01879,0.212599 0,0.297638 -0.678609,3.091184 0.246613,6.316305 2.458045,8.58133 0.140314,0.127559 0,0.340158 -0.123306,0.514489 l -0.06378,0.08504 -21.430101,33.156878 c -0.05528,0.085 -0.106299,0.17008 -0.204093,0.25512 -0.114803,0.085 -0.272124,0.0374 -0.403934,0.005 -0.83338,-0.2126 -1.69057,-0.34016 -2.552013,-0.34016 -0.770876,0 -1.607232,0.12756 -2.453367,0.29764 h -0.0048 c -0.09354,0.014 -0.178582,0.0327 -0.255116,-0.0234 -0.08504,-0.085 -0.15307,-0.17008 -0.212597,-0.25512 z M 67.061946,49.091247 94.385316,21.79784 c 3.783374,-3.780003 5.677104,-5.670855 7.867104,-6.36095 1.84406,-0.58252 3.82334,-0.58252 5.6677,0 2.19018,0.68882 4.08399,2.580947 7.86711,6.36095 l 5.92146,5.914918 -19.43276,30.063142 c -0.0468,0.08504 -0.1148,0.170079 -0.19133,0.212598 -0.11906,0.08504 -0.28063,0.04252 -0.4252,0 -3.11029,-0.943937 -6.486285,-0.297638 -9.023203,1.739057 -0.127558,0.127559 -0.314643,0.04252 -0.474516,-0.01403 C 89.6237,58.612263 69.8857,50.277973 67.061223,49.080617 Z M 125.83494,31.83462 143.7779,49.757957 139.45431,76.507111 v 0.08504 c -0.004,0.04252 -0.0165,0.127559 -0.0376,0.170079 -0.0468,0.08504 -0.14032,0.127559 -0.23386,0.127559 -0.92437,0.297638 -1.79517,0.714331 -2.5754,1.279843 -0.0335,0.02381 -0.0638,0.04252 -0.0935,0.08504 -0.051,0.04252 -0.10205,0.127559 -0.18709,0.127559 -0.068,0.0021 -0.13606,-0.0089 -0.20409,-0.03316 l -27.34216,-11.604482 -0.051,-0.02339 c -0.17433,-0.08504 -0.37843,-0.170079 -0.37843,-0.340158 -0.16157,-1.522205 -0.6582,-2.989136 -1.45671,-4.295342 -0.13181,-0.212598 -0.27637,-0.442205 -0.16582,-0.663307 z m -18.47879,40.400535 25.63152,10.844229 c 0.14032,0.08504 0.29764,0.127559 0.35716,0.255119 0.0245,0.08504 0.0245,0.170078 0,0.255118 -0.0765,0.382677 -0.14031,0.803623 -0.14031,1.233072 v 0.718583 c 0,0.170079 -0.18283,0.255118 -0.35291,0.340158 l -0.051,0.01913 c -4.0606,1.730552 -57.005931,24.284286 -57.085825,24.284286 -0.08079,0 -0.165826,0 -0.242361,-0.085 -0.140314,-0.12756 0,-0.34016 0.127558,-0.51449 0.02245,-0.0306 0.04252,-0.0425 0.06378,-0.085 l 21.063542,-32.579458 0.03759,-0.04252 c 0.123306,-0.212599 0.26362,-0.425198 0.488548,-0.425198 l 0.212597,0.03317 c 0.479193,0.08504 0.902261,0.127559 1.330005,0.127559 3.195756,0 6.156466,-1.556222 7.942316,-4.209452 0.0425,-0.08504 0.0978,-0.127559 0.16158,-0.170079 0.12756,-0.08504 0.31464,-0.04252 0.46048,0.01871 z M 78.002562,115.35355 135.71342,90.76865 c 0,0 0.085,0 0.16582,0.08504 0.31465,0.297638 0.58294,0.527244 0.84104,0.722835 l 0.12755,0.08504 c 0.11906,0.08504 0.23386,0.127559 0.24237,0.255119 0,0.04252 0,0.08504 -0.009,0.127559 l -4.94394,30.335687 -0.0188,0.12756 c -0.0329,0.25512 -0.068,0.50174 -0.28488,0.50174 -2.67575,0.17008 -5.09047,1.66677 -6.45253,3.97559 l -0.0235,0.0374 c -0.068,0.12756 -0.12756,0.2126 -0.23386,0.25512 -0.0978,0.0425 -0.22535,0.0285 -0.3274,0.005 L 78.773098,117.7996 c -0.04677,-0.009 -0.714326,-2.43638 -0.766199,-2.44064 z"
       fill="#ffffff"
       id="path1"
       style="stroke-width:11.2499" /></g></svg>
