<?xml version="1.0" encoding="UTF-8" standalone="no"?>
<!-- Created with Inkscape (http://www.inkscape.org/) -->

<svg
   width="200mm"
   height="200mm"
   viewBox="0 0 200 200"
   version="1.1"
   id="svg1"
   xml:space="preserve"
   xmlns:inkscape="http://www.inkscape.org/namespaces/inkscape"
   xmlns:sodipodi="http://sodipodi.sourceforge.net/DTD/sodipodi-0.dtd"
   xmlns="http://www.w3.org/2000/svg"
   xmlns:svg="http://www.w3.org/2000/svg"><sodipodi:namedview
     id="namedview1"
     pagecolor="#ffffff"
     bordercolor="#000000"
     borderopacity="0.25"
     inkscape:showpageshadow="2"
     inkscape:pageopacity="0.0"
     inkscape:pagecheckerboard="0"
     inkscape:deskcolor="#d1d1d1"
     inkscape:document-units="mm" /><defs
     id="defs1" /><g
     inkscape:label="Capa 1"
     inkscape:groupmode="layer"
     id="layer1"><path
       style="fill:#000000;stroke-width:2.71858"
       d="m 28.790293,181.22723 c -4.345129,-1.9646 -7.731035,-5.30294 -9.791472,-9.65391 -1.682582,-3.5531 -1.703108,-3.87827 -1.703108,-26.9734 0,-22.98296 0.02827,-23.43753 1.678314,-26.97337 2.20898,-4.73356 6.608264,-8.62354 11.342557,-10.02948 5.540216,-1.64529 44.670138,-1.63474 50.220421,0.0136 5.243269,1.55709 10.299298,6.6131 11.856379,11.85637 1.648258,5.5503 1.658787,44.6802 0.01359,50.22044 -1.405931,4.73429 -5.295933,9.13358 -10.02947,11.34253 -3.537237,1.65069 -3.981341,1.67818 -26.973374,1.66956 -21.958901,-0.008 -23.573301,-0.0976 -26.613758,-1.47225 z m 106.705187,0.47382 c -13.58247,-3.29461 -24.63381,-14.62409 -27.9389,-28.64208 -4.72138,-20.02502 8.22859,-40.70138 28.48213,-45.47558 18.65703,-4.39784 38.15488,6.29199 44.60889,24.45711 1.89645,5.33766 2.54981,15.06598 1.38759,20.66048 -2.79834,13.47006 -14.25075,25.4016 -27.75863,28.91996 -5.00047,1.30244 -13.59077,1.33909 -18.78108,0.0802 z M 29.640936,92.162376 c -4.685604,-1.618287 -8.388061,-5.021185 -10.642115,-9.78106 -1.683235,-3.554459 -1.702999,-3.869406 -1.694354,-26.973372 0.0082,-21.9589 0.0976,-23.573273 1.472273,-26.613757 1.96458,-4.34513 5.302939,-7.731036 9.653913,-9.791473 3.553099,-1.682582 3.878268,-1.703107 26.973398,-1.703107 22.982954,0 23.437535,0.02827 26.973374,1.678341 1.97805,0.923065 4.791987,3.004544 6.253198,4.625496 4.499471,4.991335 4.895802,7.566018 4.895802,31.8045 0,25.264284 -0.303975,26.986203 -5.720069,32.402316 -5.433941,5.43392 -7.101878,5.724373 -32.712685,5.696589 C 36.014668,93.4851 33.014908,93.327694 29.640936,92.162376 Z m 89.521034,0.194107 c -4.92179,-1.511665 -10.0537,-6.759172 -11.55528,-11.815563 -1.64825,-5.550274 -1.6588,-44.680199 -0.0136,-50.220415 1.30054,-4.379356 5.01681,-8.837116 9.26114,-11.108977 2.80916,-1.503645 3.87473,-1.574981 26.64143,-1.783333 20.88966,-0.191116 24.09516,-0.07204 26.90405,1.00079 4.33751,1.656538 8.60535,5.675085 10.62624,10.005588 1.65004,3.535836 1.67834,3.990437 1.67834,26.973399 0,22.982961 -0.0283,23.437535 -1.67834,26.973371 -2.20896,4.733532 -6.60824,8.623545 -11.34253,10.029484 -5.36533,1.593331 -45.29675,1.550378 -50.52153,-0.05437 z"
       id="path3"
       sodipodi:nodetypes="sssssssssssssssssssssssssssssscsssssssssssss" /></g></svg>
