<?xml version="1.0" encoding="UTF-8" standalone="no"?>
<!-- Created with Inkscape (http://www.inkscape.org/) -->

<svg
   width="500mm"
   height="500mm"
   viewBox="0 0 500 500"
   version="1.1"
   id="svg1"
   xml:space="preserve"
   xmlns="http://www.w3.org/2000/svg"
   xmlns:svg="http://www.w3.org/2000/svg"><defs
     id="defs1" /><g
     id="layer1"><path
       style="fill:#ffffff;stroke-width:2.72321"
       d="m 229.48105,474.32495 c -8.10504,-0.71961 -22.54376,-3.09005 -31.03367,-5.09483 C 139.34174,455.27315 87.44356,417.09444 56.394948,364.72982 22.44652,307.47453 15.666685,238.19476 37.830535,175.02902 60.872572,109.36041 114.83285,56.932703 181.18863,35.742532 c 50.03522,-15.978344 104.16463,-14.080768 152.58484,5.349025 50.58072,20.29676 92.98889,59.214863 117.19528,107.550323 17.43193,34.80798 25.05738,69.28848 23.92099,108.16635 -0.88284,30.20876 -7.52578,59.209 -19.72292,86.10235 -33.72094,74.35116 -104.60654,124.4317 -186.10952,131.4862 -9.63216,0.8337 -29.78959,0.79712 -39.57625,-0.0719 z M 383.45799,299.6384 c 1.43566,-1.00566 1.60123,-1.73914 1.60123,-7.09353 0,-9.86539 17.81508,-8.71709 -135.23472,-8.71709 H 117.62299 l -1.37736,1.70102 c -2.0292,2.506 -1.98659,11.73993 0.0637,13.7902 1.4305,1.43057 2.40168,1.44104 133.49416,1.44104 118.35234,0 132.21935,-0.11628 133.65446,-1.12164 z m 0.16066,-84.62043 c 1.19494,-1.19499 1.4411,-2.40173 1.4411,-7.06751 0,-3.72191 -0.3461,-6.0999 -1.02282,-7.02508 -1.00485,-1.3745 -3.30159,-1.40184 -133.18973,-1.58446 L 118.68,199.1552 l -1.90569,1.49904 c -1.76241,1.38637 -1.90568,1.91138 -1.90568,6.98435 0,4.64024 0.24127,5.74222 1.56661,7.15291 l 1.5666,1.66763 h 132.08789 c 131.12734,0 132.09843,-0.0112 133.52892,-1.44105 z"
       id="path15" /></g></svg>
