<?xml version="1.0" encoding="UTF-8" standalone="no"?>
<!-- Created with Inkscape (http://www.inkscape.org/) -->

<svg
   version="1.1"
   id="svg1"
   width="568"
   height="568"
   viewBox="0 0 568 568"
   xmlns="http://www.w3.org/2000/svg"
   xmlns:svg="http://www.w3.org/2000/svg">
  <defs
     id="defs1" />
  <g
     id="g1">
    <path
       style="fill:currentColor;stroke:#001010;stroke-width:0;stroke-linecap:square;stroke-linejoin:round;stroke-miterlimit:27.2;paint-order:markers fill stroke"
       d="m 267.48098,567.25877 c -40.25712,-4.69391 -57.61169,-8.72265 -88.31319,-20.50128 -6.85158,-2.62861 -34.46528,-16.2274 -40.12394,-19.75964 -5.47269,-3.41616 -16.0023,-10.2598 -19.36859,-12.58847 -5.79862,-4.01125 -18.05578,-14.06893 -18.44334,-15.13377 -0.23296,-0.64006 -0.9905,-1.16375 -1.683417,-1.16375 -1.176812,0 -23.208624,-21.79294 -30.316047,-29.98735 C 52.773129,449.14793 35.532021,421.70988 26.063032,399.42332 13.753838,370.45195 9.5454182,356.48939 4.3981807,327.54438 0.56262166,305.97546 0.581947,261.82298 4.4362988,240.45562 c 3.659729,-20.28841 8.5607442,-38.3556 15.9255752,-58.70829 3.125714,-8.63789 15.648044,-34.13624 20.468246,-41.67805 2.353724,-3.6827 4.2795,-7.20887 4.2795,-7.83593 0,-0.62708 0.428859,-1.33074 0.95302,-1.5637 0.524161,-0.23296 2.62154,-2.99672 4.660843,-6.14169 13.389697,-20.64929 44.847094,-53.850405 60.617057,-63.977128 2.01147,-1.291674 3.65722,-2.864157 3.65722,-3.494407 0,-0.630252 0.56975,-1.14591 1.2661,-1.14591 0.69636,0 5.1279,-2.73726 9.84787,-6.082799 4.71998,-3.34554 11.4336,-7.737766 14.91915,-9.760502 7.44619,-4.321167 33.19181,-17.194731 34.38746,-17.194731 0.45319,0 2.62583,-0.772339 4.8281,-1.716309 40.1517,-17.2104559 95.28099,-24.0469907 140.60367,-17.4361356 34.88206,5.087967 55.30291,11.1284926 84.59698,25.0239526 15.22878,7.223676 39.00307,21.236351 42.31866,24.94281 1.09406,1.223042 2.67219,2.223714 3.50696,2.223714 0.83476,0 1.70834,0.428859 1.94131,0.95302 0.23296,0.524161 2.99672,2.913221 6.14168,5.309021 7.96448,6.067249 7.97344,6.075394 22.87249,20.789074 15.55495,15.361423 17.23554,17.24807 27.40534,30.76544 12.45023,16.54844 19.36121,27.73366 27.87176,45.10962 13.54775,27.66043 20.00378,47.34783 26.2517,80.05369 2.39376,12.53053 2.79033,18.95896 2.78281,45.10962 -0.008,26.14939 -0.41374,32.67028 -2.84969,45.74497 -3.75914,20.17686 -9.76207,42.25821 -14.25883,52.45009 -1.31875,2.98894 -2.39772,5.98087 -2.39772,6.64872 0,1.48043 -15.7695,33.60234 -18.79759,38.29005 -1.19287,1.84663 -4.03088,6.49708 -6.30668,10.33432 -2.2758,3.83724 -4.99191,7.68562 -6.03579,8.55197 -1.04389,0.86635 -1.89797,2.31523 -1.89797,3.21973 0,0.90451 -0.48347,1.83516 -1.07435,2.06813 -0.5909,0.23296 -3.21769,3.42558 -5.83732,7.0947 -2.61964,3.66913 -5.28115,6.67115 -5.91447,6.67115 -0.63332,0 -1.15149,0.71796 -1.15149,1.59548 0,0.87751 -2.00135,3.26418 -4.44743,5.30371 -2.44609,2.03951 -4.44743,4.17756 -4.44743,4.7512 0,0.57364 -3.52865,4.33395 -7.84145,8.35626 -4.31278,4.02229 -9.02352,8.45688 -10.46829,9.85464 -5.05428,4.88983 -23.0708,18.83337 -32.518,25.16669 -9.06302,6.07575 -43.35011,24.09635 -51.46309,27.04793 -2.09664,0.76278 -6.95704,2.54183 -10.80089,3.95343 -16.41609,6.02861 -29.97106,9.28699 -54.63982,13.13443 -15.32937,2.39085 -46.75345,4.08887 -55.91052,3.02117 z m 50.77405,-49.55781 c 21.01626,-3.47649 40.17438,-8.72314 55.12202,-15.0957 6.99214,-2.98093 25.16974,-11.82984 28.15066,-13.70382 14.90234,-9.36851 27.33135,-17.95237 27.33135,-18.87589 0,-0.6268 0.62106,-1.13964 1.38014,-1.13964 3.84843,0 41.82344,-38.92831 41.82344,-42.87336 0,-1.52063 -16.0891,-16.84924 -17.68518,-16.84924 -0.6399,0 -1.35404,-0.48634 -1.58701,-1.08077 -0.56489,-1.4414 -10.60058,-7.80314 -16.94258,-10.7401 -7.90076,-3.65882 -14.38479,-5.91646 -25.41387,-8.8487 -10.07701,-2.67913 -11.60143,-2.70637 -175.03803,-3.12889 -124.33526,-0.32144 -164.87248,-0.0643 -164.87248,1.04561 0,2.13576 11.991535,23.47308 17.785954,31.64771 14.187406,20.01525 27.451546,34.2379 46.727866,50.10457 0.90775,0.74718 2.40284,2.02865 3.32243,2.8477 1.42355,1.26789 18.90536,12.89501 26.86406,17.86724 3.9959,2.49645 22.13808,11.22567 30.463,14.65746 36.444,15.02336 84.0929,20.53038 122.56823,14.16582 z M 375.2502,348.05901 c 24.03661,-6.74468 39.92077,-22.46995 47.32711,-46.85369 4.89756,-16.12415 2.43055,-35.6665 -6.58558,-52.16746 -6.89192,-12.6133 -22.68307,-24.94111 -38.24513,-29.85717 L 367.73459,216.0179 H 211.56245 55.390326 l -0.768959,4.7651 c -0.422928,2.6208 -1.83242,9.05369 -3.132206,14.2953 -1.299786,5.24161 -3.085511,18.25034 -3.968277,28.90828 -1.845915,22.28637 -0.161308,51.01116 3.968277,67.66443 1.299786,5.24161 2.709278,11.67449 3.132206,14.2953 l 0.768959,4.7651 H 210.59398 c 153.50275,0 155.30724,-0.0291 164.65622,-2.6524 z m 30.10103,-169.1224 c 13.13532,-2.84545 24.08001,-6.78362 33.51278,-12.05873 4.61108,-2.57866 8.96376,-5.15238 9.67264,-5.71937 0.70887,-0.56698 4.52888,-3.60099 8.48892,-6.74225 3.96003,-3.14124 8.93568,-7.81697 11.05702,-10.39051 l 3.85695,-4.67915 -5.3389,-6.41995 c -7.42192,-8.92475 -22.96193,-24.53915 -31.85058,-32.00306 -7.46693,-6.27007 -20.60943,-15.787125 -21.8011,-15.787125 -0.34924,0 -3.34523,-1.896121 -6.65775,-4.213602 C 400.71625,77.022545 385.08311,68.945559 376.12528,65.337392 356.25031,57.331861 349.34357,55.196849 328.47427,50.607496 316.56172,47.987818 311.79594,47.672206 284,47.662207 c -32.44593,-0.01167 -36.01734,0.393253 -62.26398,7.059475 -17.29775,4.393346 -24.59378,7.182527 -45.04613,17.220556 -23.4048,11.487094 -41.89508,24.917306 -61.75568,44.855542 -11.64279,11.68832 -29.748803,34.4917 -33.379104,42.03891 -0.504257,1.04832 -2.295645,4.19329 -3.980863,6.98881 -3.648199,6.05182 -7.050753,13.19852 -7.050753,14.80936 0,0.69154 65.53547,0.97009 162.96644,0.69266 139.6595,-0.39769 164.23856,-0.73963 171.8613,-2.39091 z"
       id="path1" />
    <path
       style="opacity:0.614414;fill:currentColor;stroke:#001010;stroke-width:0;stroke-linecap:square;stroke-linejoin:round;stroke-miterlimit:27.2;paint-order:markers fill stroke"
       d="m 252.81854,347.71823 c 0,-1.6381 0.60607,-5.05319 1.34685,-7.58908 2.43972,-8.35206 5.22694,-38.61038 5.22694,-56.74437 0,-17.99405 -2.63161,-45.48574 -5.74847,-60.05266 l -1.69442,-7.91904 52.88688,-0.34521 c 65.74317,-0.42912 73.96634,0.63027 91.20948,11.75048 8.07391,5.20691 20.24288,19.10631 23.83109,27.21989 1.76395,3.98862 4.23047,12.2233 5.48115,18.29929 2.15176,10.45348 2.15182,11.64068 10e-4,22.08788 -1.24994,6.07234 -3.48074,13.7718 -4.95735,17.1099 -3.02905,6.84769 -10.78917,17.49324 -15.39179,21.11487 -1.6853,1.32612 -3.80339,3.13013 -4.70687,4.00891 -2.65691,2.58434 -11.83311,7.95845 -16.82082,9.85124 -9.67392,3.67117 -16.76838,4.07287 -72.92111,4.12875 l -57.74294,0.0575 z"
       id="path2" />
    <path
       style="opacity:0.347748;fill:currentColor;stroke:#001010;stroke-width:0;stroke-linecap:square;stroke-linejoin:round;stroke-miterlimit:27.2;paint-order:markers fill stroke"
       d="m 242.81959,177.75824 c -0.91417,-1.65923 -3.6199,-6.81451 -6.0127,-11.4562 -2.39281,-4.64168 -5.04793,-9.61622 -5.90027,-11.05452 -4.32305,-7.2951 -7.98779,-13.03389 -8.69417,-13.61459 -0.43432,-0.35705 -2.75457,-3.7166 -5.1561,-7.46566 -2.40153,-3.74906 -4.8523,-6.81646 -5.44614,-6.81646 -0.59385,0 -1.07971,-0.82772 -1.07971,-1.83937 0,-1.01164 -0.47775,-2.03411 -1.06166,-2.27215 -0.58392,-0.23803 -5.25722,-5.21552 -10.38512,-11.06109 C 193.9558,106.33264 183.9188,96.453629 176.77925,90.224846 162.29104,77.584834 162.42344,78.779044 174.8252,72.600029 210.52159,54.814783 241.86013,47.565945 283.23946,47.523014 c 31.27566,-0.03245 61.55208,5.364814 83.74515,14.928934 2.85643,1.230979 6.65417,2.690367 8.43943,3.243087 6.3147,1.955033 31.1694,15.387621 42.31236,22.867486 15.7222,10.553726 43.07803,35.837739 50.74616,46.902839 l 3.63561,5.24618 -10.87723,10.1985 c -5.98247,5.60918 -11.67126,10.1985 -12.64176,10.1985 -0.9705,0 -1.76594,0.4382 -1.76764,0.97378 -0.006,1.94445 -20.48737,11.12604 -34.40383,15.42303 -7.15513,2.20929 -14.31875,2.44062 -87.86811,2.83752 l -80.07787,0.43212 z"
       id="path3" />
    <path
       style="opacity:0.102703;fill:currentColor;stroke:#001010;stroke-width:0;stroke-linecap:square;stroke-linejoin:round;stroke-miterlimit:27.2;paint-order:markers fill stroke"
       d="m 72.592229,180.05303 c 0,-0.39708 1.526567,-3.45621 3.392371,-6.79806 1.865803,-3.34185 4.023101,-7.24147 4.793996,-8.66582 1.766734,-3.26433 11.296629,-17.90823 12.218685,-18.77558 0.378553,-0.35609 4.120398,-5.01761 8.315219,-10.35893 4.19481,-5.34134 11.6673,-13.7132 16.60553,-18.60418 12.15735,-12.04099 38.50816,-33.19051 41.35304,-33.19051 0.64518,0 1.88883,-0.874035 2.7637,-1.9423 2.21085,-2.699592 2.8542,-2.511667 7.78993,2.275475 2.39179,2.319778 8.03226,7.418317 12.5344,11.330088 21.1775,18.400507 52.07638,60.631047 60.19489,82.270397 l 1.19357,3.18138 h -85.57767 c -47.06772,0 -85.577661,-0.32488 -85.577661,-0.72196 z"
       id="path4" />
    <path
       style="opacity:0.454054;fill:currentColor;stroke:#001010;stroke-width:0;stroke-linecap:square;stroke-linejoin:round;stroke-miterlimit:27.2;paint-order:markers fill stroke"
       d="m 256.10017,517.74977 c -16.83564,-1.80136 -29.85249,-4.4314 -44.00915,-8.89199 -11.18564,-3.52445 -26.64356,-9.3706 -30.4181,-11.50406 -1.42382,-0.80477 -4.16149,-2.25794 -6.08371,-3.22925 -3.19428,-1.61409 -3.88886,-5.52405 -0.98132,-5.52405 1.12559,0 25.42515,-23.83859 31.04253,-30.45366 14.44688,-17.01272 28.86132,-39.52567 38.72182,-60.47702 l 5.33038,-11.32589 h 70.30108 c 43.03815,0 74.52213,0.54518 81.18559,1.40581 16.95528,2.18991 31.52049,7.22801 45.79038,15.83886 7.41771,4.47607 7.74322,4.743 17.81631,14.61064 l 7.41865,7.26734 -4.18268,5.82475 c -9.98067,13.89895 -49.44192,48.30173 -61.7829,53.86303 -1.06787,0.48123 -4.27147,2.30029 -7.11913,4.04237 -7.45092,4.5582 -16.46847,8.79232 -29.7709,13.97873 -21.7216,8.46892 -34.91512,11.68381 -59.54179,14.50867 -19.64034,2.2529 -33.12127,2.26939 -53.71706,0.0657 z"
       id="path5" />
    <path
       style="opacity:0.0972973;fill:currentColor;stroke:#001010;stroke-width:0;stroke-linecap:square;stroke-linejoin:round;stroke-miterlimit:27.2;paint-order:markers fill stroke"
       d="m 167.89898,488.98033 c -2.14686,-1.32604 -5.09846,-2.94419 -6.55911,-3.59588 -1.46065,-0.65169 -3.43525,-2.12416 -4.38798,-3.27214 -0.95274,-1.14798 -2.28513,-2.08724 -2.96088,-2.08724 -1.39615,0 -10.58609,-6.6446 -11.24717,-8.13205 -0.23854,-0.53671 -1.02253,-0.97584 -1.7422,-0.97584 -3.12456,0 -31.17647,-27.45221 -41.894647,-40.99902 -12.197102,-15.41602 -28.142052,-39.89198 -28.142052,-43.19886 0,-0.2065 40.400029,-0.37545 89.777839,-0.37545 49.37781,0 89.77591,0.43913 89.77356,0.97585 -0.006,1.43011 -17.05311,34.68982 -18.17238,35.45574 -0.52288,0.35781 -1.63,1.94094 -2.46025,3.51806 -2.54233,4.82929 -15.65285,22.75846 -21.98685,30.06786 -8.49735,9.80592 -27.63255,28.86823 -28.97862,28.86823 -0.62232,0 -1.59972,0.73188 -2.17198,1.62641 -2.58313,4.03769 -4.86321,4.58516 -8.84728,2.12433 z"
       id="path6" />
  </g>
</svg>
