<?xml version="1.0" encoding="UTF-8" standalone="no"?>
<!-- Created with Inkscape (http://www.inkscape.org/) -->

<svg
   width="210mm"
   height="210mm"
   viewBox="0 0 210 210"
   version="1.1"
   id="svg1"
   xml:space="preserve"
   inkscape:version="1.3.2 (091e20e, 2023-11-25, custom)"
   sodipodi:docname="management_dashboard.svg"
   xmlns:inkscape="http://www.inkscape.org/namespaces/inkscape"
   xmlns:sodipodi="http://sodipodi.sourceforge.net/DTD/sodipodi-0.dtd"
   xmlns="http://www.w3.org/2000/svg"
   xmlns:svg="http://www.w3.org/2000/svg"><sodipodi:namedview
     id="namedview1"
     pagecolor="#ffffff"
     bordercolor="#000000"
     borderopacity="0.25"
     inkscape:showpageshadow="2"
     inkscape:pageopacity="0.0"
     inkscape:pagecheckerboard="0"
     inkscape:deskcolor="#d1d1d1"
     inkscape:document-units="mm"
     inkscape:zoom="0.54947468"
     inkscape:cx="404.02226"
     inkscape:cy="248.41909"
     inkscape:window-width="1280"
     inkscape:window-height="961"
     inkscape:window-x="-8"
     inkscape:window-y="-8"
     inkscape:window-maximized="1"
     inkscape:current-layer="layer1" /><defs
     id="defs1"><rect
       x="156.51313"
       y="220.21033"
       width="509.07968"
       height="315.25375"
       id="rect7" /><rect
       x="240.22945"
       y="283.90753"
       width="282.08761"
       height="251.14897"
       id="rect6" /><rect
       x="179.84068"
       y="286.41294"
       width="512.87898"
       height="326.37753"
       id="rect5" /><rect
       x="136.9788"
       y="313.99152"
       width="192.31981"
       height="127.16657"
       id="rect2" /></defs><g
     inkscape:label="Capa 1"
     inkscape:groupmode="layer"
     id="layer1"><path
       style="fill:#ffffff;fill-opacity:1;stroke:none;stroke-width:1.59576"
       d="m 104.83338,207.55611 c -1.05209,-0.32432 -2.6922,-1.25672 -3.64465,-2.072 l -1.731782,-1.48234 -0.78857,-1.80403 -0.78858,-1.80405 -0.211099,-94.57546 -0.21111,-94.575444 H 80.358004 63.258426 L 63.149978,40.480956 63.04153,69.719125 H 57.766773 52.492014 V 39.16185 8.6045764 L 53.14329,6.7586662 C 53.96317,4.4348779 55.951553,2.3191246 58.402981,1.1620543 L 60.302934,0.26527942 79.302465,0.13263922 98.302008,0 l 2.579492,0.69122935 2.57952,0.69122935 1.90432,1.9746768 c 1.04738,1.0860715 2.16653,2.6396605 2.48702,3.4524169 l 0.58273,1.4777421 0.11186,94.4698855 0.11187,94.4699 h 17.09321 17.09324 V 186.88289 176.5387 h -0.35559 c -0.19556,0 -2.618,1.04325 -5.38319,2.31833 -2.76519,1.27505 -5.37474,2.32004 -5.79898,2.32214 -0.42424,0.002 -1.34611,-0.5709 -2.04861,-1.2734 l -1.27725,-1.27726 0.27833,-1.15046 c 0.37251,-1.53972 16.95454,-29.65938 18.04452,-30.59973 l 0.85642,-0.73887 h 1.24004 1.24001 l 0.92983,1.01687 c 1.2037,1.31639 17.43721,28.88256 17.71896,30.08859 l 0.21428,0.91732 -0.78325,1.28795 -0.78326,1.28798 -1.04942,0.2634 -1.04942,0.26337 -5.12763,-2.36311 c -2.82019,-1.29972 -5.29876,-2.36312 -5.50795,-2.36312 h -0.38035 v 11.17277 11.17279 l -0.91188,2.44356 -0.9119,2.44354 -1.30472,1.30472 -1.30472,1.30473 -2.44355,0.91188 -2.44356,0.91191 -18.87814,-0.0293 -18.87814,-0.0293 z M 144.78671,141.212 c -0.95477,-0.26834 -1.9305,-1.19393 -2.9127,-2.76305 l -0.7175,-1.14622 v -9.64129 -9.64129 l -0.50666,-0.50665 -0.50665,-0.50665 h -9.63481 -9.63482 l -1.66231,-1.04937 c -0.91427,-0.57715 -1.86046,-1.41964 -2.10267,-1.8722 l -0.44036,-0.82282 v -3.75408 -3.75406 l 0.94997,-0.84007 c 0.5225,-0.46204 1.46579,-1.16014 2.0962,-1.55134 l 1.14624,-0.71126 h 9.64127 9.64129 l 0.50665,-0.50665 0.50666,-0.50665 v -9.647408 -9.647398 l 0.62488,-1.208387 c 0.3437,-0.664614 1.12929,-1.605155 1.74579,-2.090091 l 1.1209,-0.881705 h 3.6773 3.67729 l 1.04205,0.949978 c 0.57311,0.522487 1.36265,1.465779 1.75452,2.096204 l 0.71248,1.146225 v 9.641291 9.641291 l 0.50665,0.50665 0.50665,0.50665 h 9.63482 9.63481 l 1.66231,1.04936 c 0.91428,0.57715 1.86047,1.41964 2.10267,1.87219 L 180,106.39604 v 3.44441 3.44441 l -0.84938,1.0798 c -0.46716,0.5939 -1.36962,1.38383 -2.0055,1.75544 l -1.15613,0.67564 -10.13308,0.21111 -10.13309,0.2111 -0.2111,10.13309 -0.21112,10.13309 -0.55664,1.05553 c -0.30614,0.58053 -1.06613,1.43489 -1.68884,1.89853 l -1.1322,0.84301 -3.16661,0.0782 c -1.74161,0.0431 -3.52794,-0.0233 -3.9696,-0.14745 z M 36.407025,136.84745 c -3.397763,-2.83915 -6.292228,-6.28714 -6.292228,-7.49549 0,-0.37333 0.375451,-1.45125 0.834334,-2.39538 l 0.834335,-1.71661 7.18769,-7.17293 7.18769,-7.17295 v -1.10607 -1.10606 L 38.64584,101.10838 31.132832,93.534798 30.566416,92.16735 30,90.799892 30.788259,89.051846 c 1.004566,-2.22773 4.109719,-5.395057 6.224746,-6.349387 l 1.636809,-0.738552 1.832219,0.810481 1.832216,0.810481 7.335138,7.422326 7.335138,7.422325 h 0.802879 0.802877 l 7.288558,-7.375182 7.28856,-7.375192 1.871919,-0.852756 1.871919,-0.852757 1.617831,0.735042 c 2.162995,0.982726 5.252077,4.115719 6.223282,6.311732 l 0.786993,1.779485 -0.574119,1.386048 -0.574119,1.386038 -7.49671,7.600862 -7.496712,7.60089 -0.0086,1.06017 -0.0086,1.06019 7.2172,7.17295 7.217202,7.17293 0.828377,1.88437 0.828377,1.88435 -0.746285,1.65497 c -0.715193,1.58604 -3.162628,4.33379 -5.492429,6.16641 l -1.099872,0.86516 h -1.46402 -1.464021 l -8.325955,-8.23314 -8.325955,-8.23313 h -0.783444 -0.783443 l -8.325955,8.23313 -8.325955,8.23314 h -1.456407 -1.45636 z"
       id="path12" /></g></svg>
