<?xml version="1.0" encoding="UTF-8" standalone="no"?>
<!-- Created with Inkscape (http://www.inkscape.org/) -->

<svg
   width="210mm"
   height="210mm"
   viewBox="0 0 210 210"
   version="1.1"
   id="svg1"
   xml:space="preserve"
   inkscape:version="1.3.2 (091e20e, 2023-11-25, custom)"
   sodipodi:docname="management_dashboard.svg"
   xmlns:inkscape="http://www.inkscape.org/namespaces/inkscape"
   xmlns:sodipodi="http://sodipodi.sourceforge.net/DTD/sodipodi-0.dtd"
   xmlns:xlink="http://www.w3.org/1999/xlink"
   xmlns="http://www.w3.org/2000/svg"
   xmlns:svg="http://www.w3.org/2000/svg"><sodipodi:namedview
     id="namedview1"
     pagecolor="#ffffff"
     bordercolor="#000000"
     borderopacity="0.25"
     inkscape:showpageshadow="2"
     inkscape:pageopacity="0.0"
     inkscape:pagecheckerboard="0"
     inkscape:deskcolor="#d1d1d1"
     inkscape:document-units="mm"
     inkscape:zoom="0.54947468"
     inkscape:cx="404.02226"
     inkscape:cy="246.59917"
     inkscape:window-width="1280"
     inkscape:window-height="961"
     inkscape:window-x="-8"
     inkscape:window-y="-8"
     inkscape:window-maximized="1"
     inkscape:current-layer="layer1" /><defs
     id="defs1"><linearGradient
       id="linearGradient23"
       inkscape:collect="always"><stop
         style="stop-color:#000000;stop-opacity:1"
         offset="0"
         id="stop23" /><stop
         style="stop-color:#cccccc;stop-opacity:1"
         offset="1"
         id="stop24" /></linearGradient><rect
       x="156.51313"
       y="220.21033"
       width="509.07968"
       height="315.25375"
       id="rect7" /><rect
       x="240.22945"
       y="283.90753"
       width="282.08761"
       height="251.14897"
       id="rect6" /><rect
       x="179.84068"
       y="286.41294"
       width="512.87898"
       height="326.37753"
       id="rect5" /><rect
       x="136.9788"
       y="313.99152"
       width="192.31981"
       height="127.16657"
       id="rect2" /><linearGradient
       id="linearGradient11"
       inkscape:collect="always"><stop
         style="stop-color:#1a1a1a;stop-opacity:1"
         offset="0"
         id="stop11" /><stop
         style="stop-color:#b3b3b3;stop-opacity:1"
         offset="1"
         id="stop12" /></linearGradient><linearGradient
       inkscape:collect="always"
       xlink:href="#linearGradient11"
       id="linearGradient18"
       x1="-130.12247"
       y1="56.847969"
       x2="59.877525"
       y2="56.847969"
       gradientUnits="userSpaceOnUse"
       gradientTransform="matrix(1.0004327,0,0,1.0004324,50.559663,90.816769)"
       spreadMethod="pad" /><linearGradient
       inkscape:collect="always"
       xlink:href="#linearGradient23"
       id="linearGradient24"
       x1="149.75288"
       y1="41.410767"
       x2="68.375916"
       y2="161.79091"
       gradientUnits="userSpaceOnUse"
       gradientTransform="translate(-2.4076026,0.96304105)" /></defs><g
     inkscape:label="Capa 1"
     inkscape:groupmode="layer"
     id="layer1"><path
       style="fill:url(#linearGradient24);fill-opacity:1;stroke:none"
       d="m 105.84736,169.34034 c -0.6593,-0.20324 -1.68709,-0.78754 -2.28396,-1.29844 l -1.08523,-0.92892 -0.49417,-1.13052 -0.49417,-1.13052 -0.13229,-59.26667 -0.13229,-59.266665 H 90.509621 79.793996 l -0.06796,18.322396 -0.06796,18.322396 h -3.30548 -3.305481 V 63.81437 44.665344 l 0.408129,-1.156758 c 0.513786,-1.456226 1.759826,-2.782084 3.296038,-3.507174 l 1.190625,-0.561973 11.906249,-0.08312 11.906254,-0.08312 1.61647,0.433166 1.61648,0.433166 1.19336,1.237451 c 0.65635,0.680598 1.35768,1.65417 1.55852,2.163492 l 0.36517,0.926042 0.0701,59.200514 0.0701,59.20052 h 10.71164 10.71165 v -6.48229 -6.48229 h -0.22283 c -0.12255,0 -1.6406,0.65376 -3.37343,1.4528 -1.73284,0.79903 -3.36814,1.45388 -3.63399,1.4552 -0.26586,0.001 -0.84356,-0.35777 -1.28378,-0.79799 l -0.80041,-0.80041 0.17442,-0.72095 c 0.23344,-0.96488 10.62474,-18.58635 11.30778,-19.17563 l 0.53669,-0.46302 h 0.77708 0.77707 l 0.58268,0.63723 c 0.75431,0.82493 10.92721,18.09955 11.10377,18.85532 l 0.13428,0.57485 -0.49083,0.80711 -0.49084,0.80712 -0.65763,0.16506 -0.65763,0.16505 -3.21328,-1.48087 c -1.7673,-0.81448 -3.32052,-1.48087 -3.45161,-1.48087 h -0.23835 v 7.00153 7.00154 l -0.57144,1.53128 -0.57145,1.53127 -0.81762,0.81762 -0.81761,0.81762 -1.53128,0.57144 -1.53128,0.57145 -11.83018,-0.0184 -11.83018,-0.0184 z m 25.03717,-41.57521 c -0.59832,-0.16816 -1.20977,-0.74819 -1.82528,-1.73149 l -0.44963,-0.71829 v -6.04181 -6.04181 l -0.3175,-0.3175 -0.3175,-0.3175 h -6.03775 -6.03776 l -1.0417,-0.6576 c -0.57294,-0.36167 -1.16588,-0.88963 -1.31766,-1.17323 l -0.27596,-0.51563 v -2.35253 -2.35252 l 0.59531,-0.52644 c 0.32743,-0.28954 0.91855,-0.72701 1.31361,-0.97216 l 0.7183,-0.44572 h 6.0418 6.04181 l 0.3175,-0.3175 0.3175,-0.3175 v -6.045642 -6.04564 l 0.39159,-0.757249 c 0.21538,-0.416487 0.70768,-1.005887 1.09402,-1.309777 l 0.70242,-0.552529 h 2.30442 2.30441 l 0.65301,0.595313 c 0.35915,0.327422 0.85392,0.918545 1.09949,1.313608 l 0.44648,0.718295 v 6.041809 6.041812 l 0.3175,0.3175 0.3175,0.3175 h 6.03775 6.03776 l 1.0417,0.65759 c 0.57294,0.36168 1.16588,0.88963 1.31766,1.17323 l 0.27596,0.51564 v 2.15847 2.15848 l -0.53227,0.67667 c -0.29275,0.37217 -0.85829,0.86719 -1.25677,1.10006 l -0.7245,0.4234 -6.35,0.13229 -6.35,0.13229 -0.13229,6.35 -0.1323,6.35 -0.34882,0.66146 c -0.19185,0.3638 -0.6681,0.89919 -1.05833,1.18974 l -0.70951,0.52828 -1.98438,0.049 c -1.0914,0.027 -2.21082,-0.0146 -2.48759,-0.0924 z m -67.917237,-2.73509 c -2.129242,-1.77918 -3.943088,-3.93989 -3.943088,-4.69712 0,-0.23395 0.23528,-0.90944 0.522844,-1.50109 l 0.522844,-1.07573 4.504239,-4.49499 4.504239,-4.495 v -0.69313 -0.69313 l -4.708102,-4.74606 -4.708102,-4.746062 -0.354951,-0.856926 -0.35495,-0.856927 0.49397,-1.095431 c 0.629522,-1.39603 2.575398,-3.380869 3.900801,-3.978909 l 1.025723,-0.462819 1.148178,0.507893 1.148177,0.507894 4.596639,4.65128 4.596639,4.651277 h 0.503132 0.503131 l 4.567449,-4.621736 4.56745,-4.621739 1.173057,-0.534389 1.173057,-0.53439 1.01383,0.460623 c 1.35546,0.615838 3.291269,2.57916 3.899883,3.955311 l 0.493178,1.115135 -0.359776,0.868578 -0.359777,0.868578 -4.697892,4.763159 -4.697891,4.76317 -0.0054,0.66437 -0.0054,0.66438 4.522732,4.495 4.522732,4.49499 0.519113,1.18086 0.519114,1.18085 -0.467667,1.0371 c -0.448186,0.9939 -1.981897,2.71581 -3.441891,3.86424 l -0.689246,0.54216 h -0.917443 -0.917444 l -5.217544,-5.15937 -5.217544,-5.15938 H 76.354383 75.86343 l -5.217544,5.15938 -5.217544,5.15937 h -0.912641 -0.912642 z"
       id="path12" /><path
       style="opacity:1;fill:none;stroke:url(#linearGradient18);stroke-width:14.6246;stroke-linecap:round;stroke-linejoin:round;stroke-miterlimit:3.8;stroke-dasharray:none;stroke-opacity:1;paint-order:markers stroke fill"
       id="path13"
       sodipodi:type="arc"
       sodipodi:cx="15.42201"
       sodipodi:cy="147.68933"
       sodipodi:rx="87.728836"
       sodipodi:ry="87.728828"
       sodipodi:start="0"
       sodipodi:end="6.2823549"
       sodipodi:arc-type="arc"
       d="m 103.15085,147.68933 a 87.728836,87.728828 0 0 1 -87.710627,87.72883 87.728836,87.728828 0 0 1 -87.747041,-87.6924 87.728836,87.728828 0 0 1 87.67419,-87.76524 87.728836,87.728828 0 0 1 87.783448,87.65596"
       sodipodi:open="true"
       inkscape:transform-center-y="1.3048175"
       inkscape:transform-center-x="3.9035861"
       transform="matrix(0.77672148,-0.62984422,0.62984522,0.77672067,0,0)" /></g></svg>
