<?xml version="1.0" encoding="UTF-8" standalone="no"?>
<!-- Created with Inkscape (http://www.inkscape.org/) -->

<svg
   width="200mm"
   height="200mm"
   viewBox="0 0 200 200"
   version="1.1"
   id="svg1"
   xml:space="preserve"
   xmlns:inkscape="http://www.inkscape.org/namespaces/inkscape"
   xmlns:sodipodi="http://sodipodi.sourceforge.net/DTD/sodipodi-0.dtd"
   xmlns="http://www.w3.org/2000/svg"
   xmlns:svg="http://www.w3.org/2000/svg"><sodipodi:namedview
     id="namedview1"
     pagecolor="#ffffff"
     bordercolor="#000000"
     borderopacity="0.25"
     inkscape:showpageshadow="2"
     inkscape:pageopacity="0.0"
     inkscape:pagecheckerboard="0"
     inkscape:deskcolor="#d1d1d1"
     inkscape:document-units="mm" /><defs
     id="defs1" /><g
     inkscape:label="Capa 1"
     inkscape:groupmode="layer"
     id="layer1"><path
       style="fill:#000000;stroke-width:5.64608"
       d="M 39.324249,187.45549 C 28.810976,185.20903 28.382213,184.462 29.259614,169.91833 c 1.99374,-33.04715 24.927642,-56.90097 53.361159,-55.50164 12.74643,0.62733 26.451757,0.62902 42.226837,0.005 19.21264,-0.75973 36.80648,11.15981 46.39667,31.43293 5.93059,12.53695 7.96288,39.50711 3.08932,40.99705 -5.08023,1.55312 -127.993936,2.10259 -135.009351,0.60357 z M 91.599633,96.782756 C 69.114065,89.942989 56.615971,64.35244 64.088833,40.452891 73.076311,11.709178 110.60352,1.8851791 130.7288,23.007594 c 28.88508,30.3162 -0.41161,85.552596 -39.129167,73.775162 z"
       id="path4"
       sodipodi:nodetypes="sssssssssss" /></g></svg>
