<?xml version="1.0" encoding="UTF-8" standalone="no"?>
<!-- Created with Inkscape (http://www.inkscape.org/) -->

<svg
   width="200mm"
   height="200mm"
   viewBox="0 0 200 200"
   version="1.1"
   id="svg1"
   xml:space="preserve"
   xmlns:inkscape="http://www.inkscape.org/namespaces/inkscape"
   xmlns:sodipodi="http://sodipodi.sourceforge.net/DTD/sodipodi-0.dtd"
   xmlns="http://www.w3.org/2000/svg"
   xmlns:svg="http://www.w3.org/2000/svg"><sodipodi:namedview
     id="namedview1"
     pagecolor="#ffffff"
     bordercolor="#000000"
     borderopacity="0.25"
     inkscape:showpageshadow="2"
     inkscape:pageopacity="0.0"
     inkscape:pagecheckerboard="0"
     inkscape:deskcolor="#d1d1d1"
     inkscape:document-units="mm" /><defs
     id="defs1" /><g
     inkscape:label="Capa 1"
     inkscape:groupmode="layer"
     id="layer1"><path
       style="fill:#000000;stroke-width:1.24097"
       d="m 77.062026,185.74972 c 0.573465,-11.56438 0.160283,-3.37584 0.582809,-16.30845 l 0.335124,-10.25715 -8.773724,0.47937 c -14.243202,0.77819 -28.28679,-7.18638 -30.573858,-17.33944 -0.926897,-4.11482 -6.966818,-11.81668 -11.521757,-14.69209 -4.757111,-3.00302 -4.950494,-5.73895 -0.441958,-6.25268 7.154704,-0.81525 13.713404,3.12541 19.027085,11.43203 8.584498,13.41973 29.911253,16.06079 32.928611,4.07782 0.610595,-2.42493 2.016527,-5.5612 3.124293,-6.96949 2.663829,-3.38651 2.563683,-3.73651 -1.069109,-3.73651 -37.184269,0 -60.978437,-50.03387 -38.074564,-80.062393 2.295923,-3.010111 2.376855,-3.525238 1.324672,-8.431403 -1.211152,-5.647409 -0.663117,-15.285569 1.16357,-20.463432 1.849961,-5.243833 12.525643,-3.413463 25.427749,4.359654 5.795978,3.491893 5.795978,3.491893 16.702608,1.813654 13.750493,-2.11583 22.017273,-2.11583 35.767773,0 10.90663,1.678239 10.90663,1.678239 16.70261,-1.813654 12.9021,-7.773117 23.57778,-9.603487 25.42775,-4.359654 1.82668,5.177863 2.37472,14.816023 1.16357,20.463432 -1.05219,4.906165 -0.97126,5.421292 1.32468,8.431403 22.88075,29.998219 -0.92783,80.062393 -38.07458,80.062393 -3.48607,0 -3.76692,0.57733 -1.49967,3.08263 3.52422,3.89421 4.28494,8.8795 4.32953,28.37339 0.0616,26.93389 0.0834,27.11374 -0.0442,28.11057 h -27.21365 z"
       id="path8"
       sodipodi:nodetypes="cscssssssssssssssssscsscccc" /></g></svg>
