<?xml version="1.0" encoding="UTF-8" standalone="no"?>
<!-- Created with Inkscape (http://www.inkscape.org/) -->

<svg
   width="155.11389mm"
   height="155.77234mm"
   viewBox="0 0 155.11389 155.77234"
   version="1.1"
   id="svg1"
   xml:space="preserve"
   inkscape:export-filename="github.svg"
   inkscape:export-xdpi="96"
   inkscape:export-ydpi="96"
   xmlns:inkscape="http://www.inkscape.org/namespaces/inkscape"
   xmlns:sodipodi="http://sodipodi.sourceforge.net/DTD/sodipodi-0.dtd"
   xmlns="http://www.w3.org/2000/svg"
   xmlns:svg="http://www.w3.org/2000/svg"><sodipodi:namedview
     id="namedview1"
     pagecolor="#ffffff"
     bordercolor="#000000"
     borderopacity="0.25"
     inkscape:showpageshadow="2"
     inkscape:pageopacity="0.0"
     inkscape:pagecheckerboard="0"
     inkscape:deskcolor="#d1d1d1"
     inkscape:document-units="mm" /><defs
     id="defs1" /><g
     inkscape:label="Capa 1"
     inkscape:groupmode="layer"
     id="layer1"
     transform="translate(-22.443051,-22.113831)"><path
       style="fill:#000000"
       d="M 24.431941,126.29654 V 74.70691 h 16.15565 16.15565 l -0.27023,51.30208 -0.27023,51.30209 -15.88542,0.28754 -15.88542,0.28755 z m 50,-0.0271 v -51.5625 h 14.58334 14.583329 v 6.77083 c 0,8.01849 -0.40793,7.82723 5.23835,2.45605 17.60034,-16.7428 49.36414,-14.48561 61.46222,4.36761 6.82922,10.64242 7.25777,13.81239 7.25777,53.68582 v 35.84469 h -15.625 -15.625 v -31.18219 c 0,-19.55911 -0.41415,-32.27523 -1.11106,-34.11458 -4.76528,-12.57695 -23.62564,-15.75424 -33.30285,-5.61032 -5.78266,6.06153 -6.21109,8.93112 -6.21109,41.60086 v 29.30623 h -15.625009 -15.625 z M 31.681971,55.64156 c -9.32891,-4.93325 -12.19048,-17.81392 -5.81463,-26.17311 12.9856,-17.02499 39.89551,-1.70291 30.97081,17.63429 -4.72634,10.2406 -15.20931,13.79885 -25.15618,8.53882 z"
       id="path5" /></g></svg>
