<?xml version="1.0" encoding="UTF-8" standalone="no"?>
<!-- Created with Inkscape (http://www.inkscape.org/) -->

<svg
   width="200mm"
   height="200mm"
   viewBox="0 0 200 200"
   version="1.1"
   id="svg1"
   xml:space="preserve"
   inkscape:export-filename="abme.svg"
   inkscape:export-xdpi="96"
   inkscape:export-ydpi="96"
   xmlns:inkscape="http://www.inkscape.org/namespaces/inkscape"
   xmlns:sodipodi="http://sodipodi.sourceforge.net/DTD/sodipodi-0.dtd"
   xmlns="http://www.w3.org/2000/svg"
   xmlns:svg="http://www.w3.org/2000/svg"><sodipodi:namedview
     id="namedview1"
     pagecolor="#ffffff"
     bordercolor="#000000"
     borderopacity="0.25"
     inkscape:showpageshadow="2"
     inkscape:pageopacity="0.0"
     inkscape:pagecheckerboard="0"
     inkscape:deskcolor="#d1d1d1"
     inkscape:document-units="mm" /><defs
     id="defs1" /><g
     inkscape:label="Capa 1"
     inkscape:groupmode="layer"
     id="layer1"><path
       style="fill:#000000;stroke-width:2.39731"
       d="m 88.17333,189.91892 c -2.5332,-0.54072 -3.3548,-2.35328 -4.71935,-10.41146 -0.7344,-4.33698 -1.37937,-7.90018 -1.43324,-7.91823 -0.0539,-0.0192 -1.81054,-0.54448 -3.90369,-1.16986 -2.09316,-0.62539 -6.48418,-2.39456 -9.75785,-3.9315 -7.25868,-3.40785 -5.79081,-3.55344 -12.50218,1.24003 -9.01874,6.44146 -8.52914,6.5602 -19.71114,-4.77974 -10.21195,-10.3562 -10.12308,-9.81886 -3.21482,-19.43743 3.79001,-5.2769 3.79001,-5.2769 0.92354,-11.4172 -1.57657,-3.37715 -3.37949,-7.85286 -4.00648,-9.94602 -0.627,-2.09315 -1.20748,-3.90599 -1.28992,-4.02854 -0.0825,-0.12251 -3.37966,-0.77 -7.32715,-1.43875 -11.46033,-1.94151 -11.3001,-1.70425 -11.3001,-16.732848 0,-15.02857 -0.16014,-14.7913 11.3001,-16.73284 3.94749,-0.66875 7.24468,-1.31617 7.32715,-1.43872 0.0825,-0.1225 0.66292,-1.9354 1.28992,-4.02854 0.62699,-2.09317 2.42991,-6.56888 4.00648,-9.94605 2.86647,-6.14028 2.86647,-6.14028 -0.92354,-11.4172 -6.90826,-9.61855 -6.99713,-9.08124 3.21482,-19.43741 11.182,-11.33994 10.6924,-11.22122 19.71114,-4.77974 6.71137,4.79348 5.2435,4.64789 12.50218,1.24001 3.27367,-1.53694 7.66469,-3.30611 9.75785,-3.93147 2.09315,-0.62539 3.8498,-1.15182 3.90369,-1.16987 0.0539,-0.0192 0.70174,-3.59844 1.43973,-7.95639 1.88103,-11.1080905 0.87437,-10.4708205 16.53955,-10.4708205 15.66517,0 14.65854,-0.63727 16.53956,10.4708205 0.73797,4.35795 1.38584,7.93834 1.43971,7.95639 0.0539,0.0192 1.81055,0.54448 3.90371,1.16987 2.09315,0.62536 6.48418,2.39453 9.75783,3.93147 7.25868,3.40788 5.79081,3.55347 12.50221,-1.24001 9.01873,-6.44148 8.52913,-6.5602 19.71106,4.77974 10.21196,10.35617 10.12309,9.81886 3.21482,19.43741 -3.79001,5.27692 -3.79001,5.27692 -0.92351,11.4172 1.57654,3.37717 3.37946,7.85288 4.00646,9.94605 0.62701,2.09314 1.20748,3.90599 1.28992,4.02854 0.0825,0.1225 3.37968,0.76997 7.32715,1.43872 11.46033,1.94154 11.30011,1.70427 11.30011,16.73284 0,15.028598 0.16014,14.791338 -11.30011,16.732848 -3.94747,0.66875 -7.24468,1.31619 -7.32715,1.43875 -0.0825,0.1225 -0.66291,1.93539 -1.28992,4.02854 -0.627,2.09316 -2.42992,6.56887 -4.00646,9.94602 -2.8665,6.1403 -2.8665,6.1403 0.92351,11.4172 6.90827,9.61857 6.99714,9.08123 -3.21482,19.43743 -11.18193,11.33994 -10.69233,11.2212 -19.71106,4.77974 -6.7114,-4.79347 -5.24353,-4.64788 -12.50221,-1.24003 -3.27365,1.53694 -7.66468,3.30611 -9.75783,3.9315 -2.09316,0.62538 -3.84982,1.15181 -3.90371,1.16986 -0.0539,0.0192 -0.70174,3.59844 -1.43971,7.95639 -1.8641,11.00806 -1.04414,10.44709 -15.44588,10.56729 -6.3577,0.053 -12.17186,-0.0343 -12.92037,-0.19395 z m 24.44859,-32.96749 c 37.42471,-7.65433 57.1452,-51.93606 38.13235,-85.625028 -20.4194,-36.18118 -71.7774,-39.97354 -96.74462,-7.1438 -33.02368,43.423258 5.0719,103.719198 58.61227,92.768828 z M 90.16854,146.30379 c -21.57347,-4.97886 -28.04283,-14.06211 -18.86446,-26.48645 3.89168,-5.26795 3.95571,-5.29051 6.77397,-2.38669 11.58595,11.93778 32.25798,11.93778 43.84393,0 2.81826,-2.90382 2.88229,-2.88126 6.77397,2.38669 6.31781,8.55213 6.81719,11.40627 2.6586,15.19511 -10.88599,9.91799 -27.45453,14.46035 -41.18601,11.29134 z m 3.41392,-31.6545 c -22.19207,-8.29308 -17.08218,-40.699438 6.41756,-40.699438 22.12166,0 28.63974,29.456658 8.78455,39.699208 -3.43006,1.76943 -11.68954,2.31287 -15.20211,1.00023 z"
       id="path5" /></g></svg>
