<?xml version="1.0" encoding="UTF-8" standalone="no"?>
<!-- Created with Inkscape (http://www.inkscape.org/) -->

<svg
   width="100mm"
   height="100mm"
   viewBox="0 0 100 100"
   version="1.1"
   id="svg1"
   xml:space="preserve"
   inkscape:version="1.3.2 (091e20e, 2023-11-25, custom)"
   sodipodi:docname="toggleTheme.svg"
   inkscape:export-filename="toggleTheme.png"
   inkscape:export-xdpi="96"
   inkscape:export-ydpi="96"
   xmlns:inkscape="http://www.inkscape.org/namespaces/inkscape"
   xmlns:sodipodi="http://sodipodi.sourceforge.net/DTD/sodipodi-0.dtd"
   xmlns="http://www.w3.org/2000/svg"
   xmlns:svg="http://www.w3.org/2000/svg"><sodipodi:namedview
     id="namedview1"
     pagecolor="#ffffff"
     bordercolor="#000000"
     borderopacity="0.25"
     inkscape:showpageshadow="2"
     inkscape:pageopacity="0.0"
     inkscape:pagecheckerboard="0"
     inkscape:deskcolor="#d1d1d1"
     inkscape:document-units="mm"
     inkscape:zoom="1.7924876"
     inkscape:cx="161.22845"
     inkscape:cy="201.67504"
     inkscape:window-width="1280"
     inkscape:window-height="961"
     inkscape:window-x="-8"
     inkscape:window-y="-8"
     inkscape:window-maximized="1"
     inkscape:current-layer="layer1"
     inkscape:export-bgcolor="#ffffffff" /><defs
     id="defs1"><clipPath
       clipPathUnits="userSpaceOnUse"
       id="clipPath2"><path
         style="fill:#000000;stroke-width:1"
         d="m 15.152821,84.140053 c -0.27392,-0.0977 -0.63823,-0.309282 -0.80958,-0.470262 -0.29742,-0.279408 -0.31155,-0.36752 -0.31155,-1.942518 v -1.649831 l 0.39449,-0.331941 c 0.921,-0.77497 2.26497,-0.70894 3.24076,0.159221 1.47133,1.309029 0.83238,3.792289 -1.10102,4.27913 -0.7121,0.179311 -0.79453,0.17675 -1.4131,-0.0438 z m 0.82186,-1.300691 c 0,-0.135491 -0.13645,-0.194289 -0.4509,-0.194289 -0.37498,0 -0.46482,-0.0555 -0.53359,-0.329481 -0.0455,-0.18121 -0.14859,-0.30753 -0.22915,-0.280709 -0.25636,0.0853 -0.23618,0.455689 0.0399,0.73175 0.32439,0.32439 1.17376,0.377018 1.17376,0.0727 z m 1.10871,-0.440931 c -0.13031,-0.210849 -0.45772,-0.171829 -0.54875,0.0654 -0.11043,0.287769 0.23454,0.478369 0.45925,0.253738 0.0975,-0.0975 0.13776,-0.24107 0.0895,-0.319148 z m -0.78488,-0.595329 c 0,-0.323421 -0.0519,-0.388601 -0.30971,-0.388601 -0.41464,0 -0.6419,0.359471 -0.40654,0.643062 0.0965,0.116279 0.29713,0.194019 0.44585,0.172778 0.20551,-0.0294 0.2704,-0.1319 0.2704,-0.427239 z m 0.94693,-0.420711 c -0.0344,-0.41606 -0.11429,-0.52569 -0.55833,-0.766749 -0.55259,-0.29999 -1.10103,-0.38598 -1.10103,-0.17263 0,0.0712 -0.11658,0.129529 -0.25906,0.129529 -0.14249,0 -0.37565,0.116581 -0.51813,0.259072 -0.30779,0.307779 -0.35057,0.90673 -0.0648,0.90673 0.10686,0 0.19429,-0.10945 0.19429,-0.24321 0,-0.406932 0.31629,-0.550191 1.12249,-0.5084 0.74862,0.0388 0.75612,0.0431 0.79633,0.460158 0.026,0.269402 0.11041,0.420981 0.2345,0.420981 0.14485,0 0.18374,-0.12283 0.15371,-0.485481 z m 12.606819,1.313741 c -2.2289,-0.37365 -4.997079,-1.56173 -6.793119,-2.91556 -3.17415,-2.39263 -5.2936,-5.755381 -6.13895,-9.740122 -0.3134,-1.477291 -0.30668,-4.55263 0.0132,-6.042856 1.23215,-5.740186 5.20445,-10.231337 10.64686,-12.037518 2.520281,-0.836411 1.609929,-0.808056 24.339781,-0.758113 22.643592,0.04976 20.920093,-0.01119 23.360641,0.826161 3.599011,1.234824 6.88171,3.987237 8.727782,7.317889 2.613139,4.714576 2.613139,10.666137 0,15.38071 -1.88849,3.407183 -5.220272,6.162699 -8.93943,7.39326 -2.46209,0.814629 -1.559451,0.785458 -23.851875,0.77097 -16.75152,-0.0109 -20.47,-0.0448 -21.36489,-0.194821 z m 42.274884,-2.905821 c 3.001479,-0.428458 5.576179,-1.731883 7.584549,-3.839623 1.594432,-1.673317 2.65498,-3.543961 3.2547,-5.740767 0.256011,-0.937787 0.300572,-1.408306 0.300572,-3.173553 0,-2.475315 -0.23165,-3.529174 -1.224311,-5.569908 -3.893511,-8.004384 -14.401883,-9.771637 -20.695733,-3.480522 -1.67023,1.669515 -2.949289,3.992964 -3.48479,6.330241 -0.325461,1.420582 -0.324601,4.026447 0.0021,5.440378 1.515398,6.564328 7.76574,10.961264 14.263203,10.033754 z m -1.61916,-4.818734 v -3.30658 l 0.291449,-0.0781 c 0.16029,-0.04296 0.40803,-0.07895 0.550511,-0.07998 0.480251,-0.0035 1.809419,-0.744511 2.357401,-1.314302 1.300178,-1.351923 1.651989,-3.326548 0.890828,-5.000056 -0.581578,-1.278678 -1.890509,-2.351384 -3.124719,-2.560799 -1.061881,-0.180173 -0.96547,0.171553 -0.96547,-3.522355 V 55.79831 l 0.922909,0.09094 c 3.95918,0.390125 7.354412,2.727068 9.043821,6.224873 0.95272,1.97254 1.102241,2.640248 1.102241,4.922245 0,2.277253 -0.148042,2.941288 -1.097362,4.922245 -1.677678,3.500826 -5.13026,5.869585 -9.09188,6.237777 l -0.879729,0.08176 z M 69.345321,71.427128 C 67.2636,70.86772 65.947962,69.16307 65.953841,67.032867 c 0.006,-2.347888 1.601039,-4.145568 4.003622,-4.513638 l 0.550521,-0.08434 v 4.599945 c 0,5.215173 0.12614,4.738621 -1.162663,4.39229 z M 29.82455,47.211144 C 23.303831,46.030332 18.318141,41.138012 16.920191,34.548469 c -0.31393,-1.479799 -0.3067,-4.552416 0.0142,-6.048103 0.72217,-3.365547 2.22306,-6.062101 4.68795,-8.4225 2.00168,-1.916824 4.25483,-3.177161 7.017101,-3.925145 l 1.519039,-0.411332 20.53095,-0.03719 c 22.816804,-0.04133 21.782383,-0.07613 24.470193,0.823268 5.47079,1.83064 9.483791,6.459373 10.58436,12.20836 0.315349,1.647298 0.28239,4.256228 -0.0756,5.982113 -0.60199,2.902407 -1.935249,5.469162 -3.95587,7.615724 -1.930259,2.050563 -4.06732,3.435916 -6.619121,4.290849 -2.453978,0.822155 -1.427699,0.788791 -23.870443,0.776014 -16.702088,-0.0095 -20.595429,-0.04397 -21.398458,-0.189383 z m 42.771375,-1.673042 c 1.902198,-0.333135 3.880078,-1.145268 5.619258,-2.307315 1.156621,-0.772803 3.128111,-2.850391 3.92239,-4.13348 2.224241,-3.593057 2.773122,-7.960365 1.493922,-11.886798 -1.39247,-4.274145 -4.793192,-7.70686 -9.041212,-9.126283 C 72.323764,17.326901 73.181795,17.351943 50.81079,17.39021 l -20.52274,0.03511 -1.266489,0.349653 c -10.82323,2.988086 -14.33348,16.270401 -6.33333,23.964479 2.0754,1.995993 4.209469,3.131701 7.016921,3.734245 1.038169,0.222813 2.26305,0.236828 21.453089,0.245422 17.341871,0.0078 20.512632,-0.01902 21.437684,-0.181012 z M 30.84685,43.784208 c -2.052299,-0.326345 -4.24642,-1.244473 -5.807959,-2.430336 -1.93488,-1.46939 -3.51282,-3.695295 -4.24507,-5.988267 -0.43743,-1.369782 -0.58048,-2.311421 -0.58048,-3.821218 0,-1.509795 0.14305,-2.451436 0.58048,-3.821216 1.75597,-5.498677 7.424349,-9.128234 13.16436,-8.429369 5.029581,0.612367 9.213141,4.216077 10.53756,9.077032 0.25708,0.943573 0.29995,1.406679 0.299749,3.23832 -1.98e-4,1.854917 -0.0401,2.2742 -0.30204,3.173553 -1.266669,4.349007 -4.65482,7.652062 -8.959318,8.734285 -1.253451,0.315137 -3.559252,0.446587 -4.687282,0.267216 z m 4.245581,-1.814492 c 3.547099,-0.903999 6.415249,-3.515606 7.57586,-6.898243 0.843851,-2.459445 0.843851,-4.594725 0,-7.05417 -1.33885,-3.902118 -5.06425,-6.835188 -9.044771,-7.121092 l -1.068639,-0.07676 v 3.175947 3.175948 l -0.564311,0.06361 c -1.393479,0.157065 -2.80914,1.206545 -3.4284,2.541577 -0.45725,0.985787 -0.477909,2.489954 -0.0473,3.441467 0.636799,1.406975 1.996019,2.45975 3.388701,2.624691 l 0.651259,0.07713 v 3.155511 3.155511 h 0.756481 c 0.416059,0 1.217538,-0.117507 1.781069,-0.261126 z m -2.53755,-10.426088 v -4.373801 l 0.604769,0.08289 c 2.91003,0.398864 4.569862,3.572655 3.271311,6.255107 -0.57444,1.18664 -2.00279,2.198455 -3.311779,2.345994 l -0.564301,0.06361 z"
         id="path3" /></clipPath></defs><g
     inkscape:label="Capa 1"
     inkscape:groupmode="layer"
     id="layer1"><path
       style="opacity:1;fill:#000000;stroke:#001010;stroke-width:0;stroke-linecap:square;stroke-linejoin:round;stroke-miterlimit:27.2;paint-order:markers fill stroke"
       id="path1"
       sodipodi:type="arc"
       sodipodi:cx="32.414429"
       sodipodi:cy="31.56163"
       sodipodi:rx="12.381153"
       sodipodi:ry="12.381153"
       sodipodi:start="0.0038383394"
       sodipodi:end="0.0038183274"
       sodipodi:open="true"
       sodipodi:arc-type="chord"
       d="M 44.795491,31.609153 A 12.381153,12.381153 0 0 1 32.366968,43.942692 12.381153,12.381153 0 0 1 20.033366,31.514231 12.381153,12.381153 0 0 1 32.461766,19.180568 12.381153,12.381153 0 0 1 44.795492,31.608905 Z"
       clip-path="url(#clipPath2)"
       transform="matrix(4.0383962,0,0,4.0383962,-80.902306,-77.458368)" /></g></svg>
